Coordinates
version=1
nRows=17
nColumns=40
inDegrees=yes

Units are S.I. units (second, meters, Newtons, ...)
If the header above contains a line with 'inDegrees', this indicates whether rotational values are in degrees (yes) or radians (no).

endheader
time	pelvis_tilt	pelvis_list	pelvis_rotation	pelvis_tx	pelvis_ty	pelvis_tz	hip_flexion_r	hip_adduction_r	hip_rotation_r	knee_angle_r	knee_angle_r_beta	ankle_angle_r	subtalar_angle_r	mtp_angle_r	hip_flexion_l	hip_adduction_l	hip_rotation_l	knee_angle_l	knee_angle_l_beta	ankle_angle_l	subtalar_angle_l	mtp_angle_l	lumbar_extension	lumbar_bending	lumbar_rotation	arm_flex_r	arm_add_r	arm_rot_r	elbow_flex_r	pro_sup_r	wrist_flex_r	wrist_dev_r	arm_flex_l	arm_add_l	arm_rot_l	elbow_flex_l	pro_sup_l	wrist_flex_l	wrist_dev_l
      4.64000000	    -29.60254089	     -0.82878278	      4.75111598	      0.15753489	      0.46192166	     -1.16770263	    117.32038958	    -48.59477842	     22.63354846	    111.83798929	      1.95194114	     32.91725967	      7.76144312	      0.00000000	    116.77263345	    -37.18645991	     18.69972226	    107.35040724	      1.87361806	     31.70467094	     18.71434417	      0.00000000	      0.00000000	      0.00000000	      0.00000000	     44.86705299	    -14.99862585	     44.86705299	     75.00018090	     45.00000026	      0.00000000	      0.00000000	     44.86705299	    -14.99862585	     44.86705299	     75.00018090	     45.00000026	      0.00000000	      0.00000000
      4.64500000	    -29.64265707	     -0.87530839	      4.82045266	      0.15711683	      0.46222819	     -1.16792692	    117.30172829	    -48.61632954	     22.57911797	    111.77728514	      1.95088165	     32.83815952	      7.66154561	      0.00000000	    116.80146541	    -37.06183797	     18.65345116	    107.29146829	      1.87258938	     31.62714720	     18.66217235	      0.00000000	      0.00000000	      0.00000000	      0.00000000	     44.87189270	    -14.99870315	     44.87189270	     75.00018042	     45.00000026	      0.00000000	      0.00000000	     44.87189270	    -14.99870315	     44.87189270	     75.00018042	     45.00000026	      0.00000000	      0.00000000
      4.65000000	    -29.69798371	     -0.86058569	      4.90599761	      0.15660804	      0.46252867	     -1.16808509	    117.38050932	    -48.59845826	     22.62630261	    111.72316752	      1.94993712	     32.74870626	      7.45870987	      0.00000000	    116.77244743	    -36.94633001	     18.51131407	    107.21246352	      1.87121049	     31.58685373	     18.57678951	      0.00000000	      0.00000000	      0.00000000	      0.00000000	     44.87784343	    -14.99879660	     44.87784343	     75.00017986	     45.00000026	      0.00000000	      0.00000000	     44.87784343	    -14.99879660	     44.87784343	     75.00017986	     45.00000026	      0.00000000	      0.00000000
      4.65500000	    -29.82624383	     -0.70981149	      4.97994199	      0.15607669	      0.46273881	     -1.16813170	    117.72361540	    -48.51000151	     22.90138641	    111.66558739	      1.94893216	     32.55564943	      7.27836438	      0.00000000	    116.68490169	    -36.90026260	     18.18872562	    107.12712062	      1.86972097	     31.49945595	     18.49916326	      0.00000000	      0.00000000	      0.00000000	      0.00000000	     44.88577454	    -14.99891765	     44.88577454	     75.00017917	     45.00000026	      0.00000000	      0.00000000	     44.88577454	    -14.99891765	     44.88577454	     75.00017917	     45.00000026	      0.00000000	      0.00000000
      4.66000000	    -29.77571397	     -0.84630234	      4.96891947	      0.15572284	      0.46357029	     -1.16826492	    117.33723893	    -48.51375652	     22.54344237	    111.55477716	      1.94699816	     32.61432179	      7.28411764	      0.00000000	    116.70761193	    -36.86035404	     18.25912755	    107.03531865	      1.86811873	     31.36181673	     18.47342940	      0.00000000	      0.00000000	      0.00000000	      0.00000000	     44.88973481	    -14.99897575	     44.88973481	     75.00017887	     45.00000026	      0.00000000	      0.00000000	     44.88973481	    -14.99897575	     44.88973481	     75.00017887	     45.00000026	      0.00000000	      0.00000000
      4.66500000	    -29.99745523	     -0.84959911	      5.10604385	      0.15501693	      0.46368886	     -1.16857923	    117.65338420	    -48.52860072	     22.63292841	    111.47578595	      1.94561950	     32.34103076	      6.93921209	      0.00000000	    116.82509403	    -36.63747392	     18.08927770	    106.93113410	      1.86630036	     31.24014802	     18.33196884	      0.00000000	      0.00000000	      0.00000000	      0.00000000	     44.89347319	    -14.99902978	     44.89347319	     75.00017860	     45.00000026	      0.00000000	      0.00000000	     44.89347319	    -14.99902978	     44.89347319	     75.00017860	     45.00000026	      0.00000000	      0.00000000
      4.67000000	    -29.94753018	     -0.86925924	      5.11507099	      0.15460907	      0.46461867	     -1.16863035	    117.39394841	    -48.47972197	     22.46529692	    111.35253902	      1.94346844	     32.40563622	      6.95365666	      0.00000000	    116.71140907	    -36.63097789	     17.98558073	    106.81574130	      1.86428638	     31.11767809	     18.27274886	      0.00000000	      0.00000000	      0.00000000	      0.00000000	     44.89743927	    -14.99908586	     44.89743927	     75.00017832	     45.00000026	      0.00000000	      0.00000000	     44.89743927	    -14.99908586	     44.89743927	     75.00017832	     45.00000026	      0.00000000	      0.00000000
      4.67500000	    -30.17118476	     -0.81760469	      5.25875695	      0.15384630	      0.46490424	     -1.16895285	    117.76591764	    -48.47661356	     22.62787315	    111.24236258	      1.94154549	     32.05461684	      6.59193086	      0.00000000	    116.73943251	    -36.41694651	     17.72226927	    106.67826992	      1.86188705	     31.01699703	     18.16204213	      0.00000000	      0.00000000	      0.00000000	      0.00000000	     44.90004505	    -14.99912182	     44.90004505	     75.00017816	     45.00000026	      0.00000000	      0.00000000	     44.90004505	    -14.99912182	     44.90004505	     75.00017816	     45.00000026	      0.00000000	      0.00000000
      4.68000000	    -30.22119976	     -0.86257143	      5.29483376	      0.15327990	      0.46569113	     -1.16909710	    117.63976463	    -48.44252381	     22.45964029	    111.11585277	      1.93933748	     32.00583930	      6.44937920	      0.00000000	    116.74132914	    -36.34366315	     17.62060222	    106.55581423	      1.85974980	     30.89499884	     18.07889668	      0.00000000	      0.00000000	      0.00000000	      0.00000000	     44.90308386	    -14.99916331	     44.90308386	     75.00017797	     45.00000026	      0.00000000	      0.00000000	     44.90308386	    -14.99916331	     44.90308386	     75.00017797	     45.00000026	      0.00000000	      0.00000000
      4.68500000	    -30.27614423	     -0.85516878	      5.35494962	      0.15267882	      0.46652851	     -1.16923801	    117.60538534	    -48.40585835	     22.39340399	    110.98384967	      1.93703359	     31.88351886	      6.28191313	      0.00000000	    116.65969925	    -36.25637855	     17.44072193	    106.40750816	      1.85716137	     30.78307911	     18.01436057	      0.00000000	      0.00000000	      0.00000000	      0.00000000	     44.90580790	    -14.99919994	     44.90580790	     75.00017781	     45.00000026	      0.00000000	      0.00000000	     44.90580790	    -14.99919994	     44.90580790	     75.00017781	     45.00000026	      0.00000000	      0.00000000
      4.69000000	    -30.40113752	     -0.85309444	      5.44462859	      0.15194798	      0.46724613	     -1.16947594	    117.67754214	    -48.37841953	     22.35747436	    110.84101762	      1.93454070	     31.69246435	      6.01831785	      0.00000000	    116.64653369	    -36.10899241	     17.24239659	    106.25559766	      1.85451003	     30.64055980	     17.88692610	      0.00000000	      0.00000000	      0.00000000	      0.00000000	     44.90852495	    -14.99923586	     44.90852495	     75.00017766	     45.00000026	      0.00000000	      0.00000000	     44.90852495	    -14.99923586	     44.90852495	     75.00017766	     45.00000026	      0.00000000	      0.00000000
      4.69500000	    -30.51225957	     -0.90576724	      5.50646957	      0.15123382	      0.46813447	     -1.16970763	    117.61137999	    -48.35479001	     22.18124800	    110.67334157	      1.93161420	     31.54807198	      5.79260718	      0.00000000	    116.65773223	    -35.96557103	     17.12066504	    106.08723091	      1.85157147	     30.48549558	     17.76961443	      0.00000000	      0.00000000	      0.00000000	      0.00000000	     44.91156987	    -14.99927542	     44.91156987	     75.00017750	     45.00000026	      0.00000000	      0.00000000	     44.91156987	    -14.99927542	     44.91156987	     75.00017750	     45.00000026	      0.00000000	      0.00000000
      4.70000000	    -30.57561142	     -0.78738472	      5.54701593	      0.15055202	      0.46910897	     -1.16971951	    117.67532128	    -48.23334594	     22.26236344	    110.52621879	      1.92904643	     31.45455663	      5.74819130	      0.00000000	    116.47397817	    -35.95222375	     16.78078592	    105.91424903	      1.84855237	     30.35847759	     17.64648246	      0.00000000	      0.00000000	      0.00000000	      0.00000000	     44.91326970	    -14.99929693	     44.91326970	     75.00017742	     45.00000026	      0.00000000	      0.00000000	     44.91326970	    -14.99929693	     44.91326970	     75.00017742	     45.00000026	      0.00000000	      0.00000000
      4.70500000	    -30.55260973	     -1.01947634	      5.60832862	      0.14991788	      0.47051072	     -1.17013052	    117.16724710	    -48.32428041	     21.72079366	    110.31145382	      1.92529807	     31.37609897	      5.52628278	      0.00000000	    116.48321312	    -35.74201596	     16.86485414	    105.72880415	      1.84531575	     30.19619687	     17.55906452	      0.00000000	      0.00000000	      0.00000000	      0.00000000	     44.91610953	    -14.99933266	     44.91610953	     75.00017728	     45.00000026	      0.00000000	      0.00000000	     44.91610953	    -14.99933266	     44.91610953	     75.00017728	     45.00000026	      0.00000000	      0.00000000
      4.71000000	    -30.71175034	     -1.00782767	      5.70006473	      0.14907660	      0.47145705	     -1.17040400	    117.24785828	    -48.28495020	     21.66639759	    110.11677283	      1.92190025	     31.15518920	      5.23972214	      0.00000000	    116.44736520	    -35.57759398	     16.61970360	    105.53592964	      1.84194945	     30.05180838	     17.39812787	      0.00000000	      0.00000000	      0.00000000	      0.00000000	     44.91889063	    -14.99936705	     44.91889063	     75.00017715	     45.00000026	      0.00000000	      0.00000000	     44.91889063	    -14.99936705	     44.91889063	     75.00017715	     45.00000026	      0.00000000	      0.00000000
      4.71500000	    -30.97086012	     -0.96507546	      5.78686152	      0.14806462	      0.47219306	     -1.17064229	    117.50726479	    -48.19187355	     21.68787849	    109.93324133	      1.91869702	     30.86599320	      4.85203455	      0.00000000	    116.48724953	    -35.39411400	     16.34765516	    105.32626974	      1.83829020	     29.85764006	     17.20453163	      0.00000000	      0.00000000	      0.00000000	      0.00000000	     44.92148234	    -14.99939850	     44.92148234	     75.00017704	     45.00000026	      0.00000000	      0.00000000	     44.92148234	    -14.99939850	     44.92148234	     75.00017704	     45.00000026	      0.00000000	      0.00000000
      4.72000000	    -31.06509007	     -0.95779185	      5.85884071	      0.14724115	      0.47342274	     -1.17084529	    117.44707130	    -48.13903944	     21.57205502	    109.72701158	      1.91509763	     30.71520882	      4.63723489	      0.00000000	    116.38104684	    -35.25698544	     16.11247689	    105.11202497	      1.83455092	     29.68273433	     17.05245064	      0.00000000	      0.00000000	      0.00000000	      0.00000000	     44.92277124	    -14.99941368	     44.92277124	     75.00017699	     45.00000026	      0.00000000	      0.00000000	     44.92277124	    -14.99941368	     44.92277124	     75.00017699	     45.00000026	      0.00000000	      0.00000000
